<svg width="24" height="24" viewBox="0 0 24 24" fill="none" xmlns="http://www.w3.org/2000/svg">
<path d="M6.04024 7.772C3.58024 8.329 2.35024 8.607 2.05723 9.548C1.76523 10.488 2.60324 11.469 4.28024 13.43L4.71424 13.937C5.19024 14.494 5.42923 14.773 5.53623 15.117C5.64323 15.462 5.60723 15.834 5.53523 16.577L5.46923 17.254C5.21623 19.871 5.08924 21.179 5.85524 21.76C6.62124 22.341 7.77323 21.811 10.0752 20.751L10.6722 20.477C11.3262 20.175 11.6532 20.025 12.0002 20.025C12.3472 20.025 12.6742 20.175 13.3292 20.477L13.9242 20.751C16.2272 21.811 17.3792 22.341 18.1442 21.761C18.9112 21.179 18.7842 19.871 18.5312 17.254M19.7202 13.43C21.3972 11.47 22.2352 10.489 21.9432 9.548C21.6512 8.607 20.4202 8.328 17.9602 7.772L17.3242 7.628C16.6252 7.47 16.2762 7.391 15.9952 7.178C15.7142 6.965 15.5352 6.642 15.1752 5.996L14.8472 5.408C13.5802 3.136 12.9472 2 12.0002 2C11.0532 2 10.4202 3.136 9.15323 5.408" stroke="white" stroke-width="1.5" stroke-linecap="round"/>
</svg>
